<mxfile host="app.diagrams.net" modified="2024-01-01T00:00:00.000Z" agent="5.0" version="24.7.17" etag="abc123" type="device">
  <diagram name="Airbnb Data Flow Diagram" id="airbnb-dfd">
    <mxGraphModel dx="1422" dy="794" grid="1" gridSize="10" guides="1" tooltips="1" connect="1" arrows="1" fold="1" page="1" pageScale="1" pageWidth="1169" pageHeight="827" math="0" shadow="0">
      <root>
        <mxCell id="0" />
        <mxCell id="1" parent="0" />
        
        <!-- External Entities -->
        <mxCell id="guest" value="Guest" style="shape=umlActor;verticalLabelPosition=bottom;verticalAlign=top;html=1;outlineConnect=0;" vertex="1" parent="1">
          <mxGeometry x="40" y="200" width="30" height="60" as="geometry" />
        </mxCell>
        
        <mxCell id="host" value="Host" style="shape=umlActor;verticalLabelPosition=bottom;verticalAlign=top;html=1;outlineConnect=0;" vertex="1" parent="1">
          <mxGeometry x="40" y="400" width="30" height="60" as="geometry" />
        </mxCell>
        
        <mxCell id="admin" value="Admin" style="shape=umlActor;verticalLabelPosition=bottom;verticalAlign=top;html=1;outlineConnect=0;" vertex="1" parent="1">
          <mxGeometry x="40" y="600" width="30" height="60" as="geometry" />
        </mxCell>
        
        <mxCell id="payment_gateway" value="Payment Gateway" style="shape=umlActor;verticalLabelPosition=bottom;verticalAlign=top;html=1;outlineConnect=0;" vertex="1" parent="1">
          <mxGeometry x="1000" y="300" width="30" height="60" as="geometry" />
        </mxCell>
        
        <mxCell id="email_service" value="Email Service" style="shape=umlActor;verticalLabelPosition=bottom;verticalAlign=top;html=1;outlineConnect=0;" vertex="1" parent="1">
          <mxGeometry x="1000" y="500" width="30" height="60" as="geometry" />
        </mxCell>
        
        <!-- Data Stores -->
        <mxCell id="user_db" value="User Database" style="shape=cylinder3;whiteSpace=wrap;html=1;boundedLbl=1;backgroundOutline=1;size=15;" vertex="1" parent="1">
          <mxGeometry x="300" y="100" width="80" height="60" as="geometry" />
        </mxCell>
        
        <mxCell id="property_db" value="Property Database" style="shape=cylinder3;whiteSpace=wrap;html=1;boundedLbl=1;backgroundOutline=1;size=15;" vertex="1" parent="1">
          <mxGeometry x="300" y="200" width="80" height="60" as="geometry" />
        </mxCell>
        
        <mxCell id="booking_db" value="Booking Database" style="shape=cylinder3;whiteSpace=wrap;html=1;boundedLbl=1;backgroundOutline=1;size=15;" vertex="1" parent="1">
          <mxGeometry x="300" y="300" width="80" height="60" as="geometry" />
        </mxCell>
        
        <mxCell id="payment_db" value="Payment Database" style="shape=cylinder3;whiteSpace=wrap;html=1;boundedLbl=1;backgroundOutline=1;size=15;" vertex="1" parent="1">
          <mxGeometry x="300" y="400" width="80" height="60" as="geometry" />
        </mxCell>
        
        <mxCell id="review_db" value="Review Database" style="shape=cylinder3;whiteSpace=wrap;html=1;boundedLbl=1;backgroundOutline=1;size=15;" vertex="1" parent="1">
          <mxGeometry x="300" y="500" width="80" height="60" as="geometry" />
        </mxCell>
        
        <!-- Processes -->
        <mxCell id="auth_process" value="1.0&#xa;Authentication&#xa;Process" style="rounded=1;whiteSpace=wrap;html=1;" vertex="1" parent="1">
          <mxGeometry x="150" y="180" width="100" height="60" as="geometry" />
        </mxCell>
        
        <mxCell id="property_process" value="2.0&#xa;Property&#xa;Management" style="rounded=1;whiteSpace=wrap;html=1;" vertex="1" parent="1">
          <mxGeometry x="150" y="380" width="100" height="60" as="geometry" />
        </mxCell>
        
        <mxCell id="search_process" value="3.0&#xa;Search &amp;&#xa;Filter Process" style="rounded=1;whiteSpace=wrap;html=1;" vertex="1" parent="1">
          <mxGeometry x="500" y="180" width="100" height="60" as="geometry" />
        </mxCell>
        
        <mxCell id="booking_process" value="4.0&#xa;Booking&#xa;Process" style="rounded=1;whiteSpace=wrap;html=1;" vertex="1" parent="1">
          <mxGeometry x="500" y="280" width="100" height="60" as="geometry" />
        </mxCell>
        
        <mxCell id="payment_process" value="5.0&#xa;Payment&#xa;Process" style="rounded=1;whiteSpace=wrap;html=1;" vertex="1" parent="1">
          <mxGeometry x="500" y="380" width="100" height="60" as="geometry" />
        </mxCell>
        
        <mxCell id="review_process" value="6.0&#xa;Review &amp;&#xa;Rating Process" style="rounded=1;whiteSpace=wrap;html=1;" vertex="1" parent="1">
          <mxGeometry x="500" y="480" width="100" height="60" as="geometry" />
        </mxCell>
        
        <mxCell id="notification_process" value="7.0&#xa;Notification&#xa;Process" style="rounded=1;whiteSpace=wrap;html=1;" vertex="1" parent="1">
          <mxGeometry x="700" y="300" width="100" height="60" as="geometry" />
        </mxCell>
        
        <mxCell id="admin_process" value="8.0&#xa;Admin&#xa;Management" style="rounded=1;whiteSpace=wrap;html=1;" vertex="1" parent="1">
          <mxGeometry x="150" y="580" width="100" height="60" as="geometry" />
        </mxCell>
        
        <!-- Data Flows from External Entities to Processes -->
        <mxCell id="flow1" value="Login Request" style="endArrow=classic;html=1;rounded=0;" edge="1" parent="1" source="guest" target="auth_process">
          <mxGeometry width="50" height="50" relative="1" as="geometry">
            <mxPoint x="70" y="200" as="sourcePoint" />
            <mxPoint x="150" y="200" as="targetPoint" />
          </mxGeometry>
        </mxCell>
        
        <mxCell id="flow2" value="Registration Data" style="endArrow=classic;html=1;rounded=0;" edge="1" parent="1" source="guest" target="auth_process">
          <mxGeometry width="50" height="50" relative="1" as="geometry">
            <mxPoint x="70" y="220" as="sourcePoint" />
            <mxPoint x="150" y="220" as="targetPoint" />
          </mxGeometry>
        </mxCell>
        
        <mxCell id="flow3" value="Property Listing Data" style="endArrow=classic;html=1;rounded=0;" edge="1" parent="1" source="host" target="property_process">
          <mxGeometry width="50" height="50" relative="1" as="geometry">
            <mxPoint x="70" y="400" as="sourcePoint" />
            <mxPoint x="150" y="400" as="targetPoint" />
          </mxGeometry>
        </mxCell>
        
        <mxCell id="flow4" value="Search Criteria" style="endArrow=classic;html=1;rounded=0;" edge="1" parent="1" source="guest" target="search_process">
          <mxGeometry width="50" height="50" relative="1" as="geometry">
            <mxPoint x="70" y="180" as="sourcePoint" />
            <mxPoint x="500" y="180" as="targetPoint" />
          </mxGeometry>
        </mxCell>
        
        <mxCell id="flow5" value="Booking Request" style="endArrow=classic;html=1;rounded=0;" edge="1" parent="1" source="guest" target="booking_process">
          <mxGeometry width="50" height="50" relative="1" as="geometry">
            <mxPoint x="70" y="250" as="sourcePoint" />
            <mxPoint x="500" y="280" as="targetPoint" />
          </mxGeometry>
        </mxCell>
        
        <mxCell id="flow6" value="Payment Data" style="endArrow=classic;html=1;rounded=0;" edge="1" parent="1" source="guest" target="payment_process">
          <mxGeometry width="50" height="50" relative="1" as="geometry">
            <mxPoint x="70" y="280" as="sourcePoint" />
            <mxPoint x="500" y="380" as="targetPoint" />
          </mxGeometry>
        </mxCell>
        
        <mxCell id="flow7" value="Review Data" style="endArrow=classic;html=1;rounded=0;" edge="1" parent="1" source="guest" target="review_process">
          <mxGeometry width="50" height="50" relative="1" as="geometry">
            <mxPoint x="70" y="300" as="sourcePoint" />
            <mxPoint x="500" y="480" as="targetPoint" />
          </mxGeometry>
        </mxCell>
        
        <mxCell id="flow8" value="Admin Commands" style="endArrow=classic;html=1;rounded=0;" edge="1" parent="1" source="admin" target="admin_process">
          <mxGeometry width="50" height="50" relative="1" as="geometry">
            <mxPoint x="70" y="600" as="sourcePoint" />
            <mxPoint x="150" y="600" as="targetPoint" />
          </mxGeometry>
        </mxCell>
        
        <!-- Data Flows from Processes to Data Stores -->
        <mxCell id="flow9" value="User Data" style="endArrow=classic;html=1;rounded=0;" edge="1" parent="1" source="auth_process" target="user_db">
          <mxGeometry width="50" height="50" relative="1" as="geometry">
            <mxPoint x="250" y="200" as="sourcePoint" />
            <mxPoint x="300" y="130" as="targetPoint" />
          </mxGeometry>
        </mxCell>
        
        <mxCell id="flow10" value="Property Data" style="endArrow=classic;html=1;rounded=0;" edge="1" parent="1" source="property_process" target="property_db">
          <mxGeometry width="50" height="50" relative="1" as="geometry">
            <mxPoint x="250" y="400" as="sourcePoint" />
            <mxPoint x="300" y="230" as="targetPoint" />
          </mxGeometry>
        </mxCell>
        
        <mxCell id="flow11" value="Booking Data" style="endArrow=classic;html=1;rounded=0;" edge="1" parent="1" source="booking_process" target="booking_db">
          <mxGeometry width="50" height="50" relative="1" as="geometry">
            <mxPoint x="600" y="310" as="sourcePoint" />
            <mxPoint x="300" y="330" as="targetPoint" />
          </mxGeometry>
        </mxCell>
        
        <mxCell id="flow12" value="Payment Data" style="endArrow=classic;html=1;rounded=0;" edge="1" parent="1" source="payment_process" target="payment_db">
          <mxGeometry width="50" height="50" relative="1" as="geometry">
            <mxPoint x="600" y="410" as="sourcePoint" />
            <mxPoint x="300" y="430" as="targetPoint" />
          </mxGeometry>
        </mxCell>
        
        <mxCell id="flow13" value="Review Data" style="endArrow=classic;html=1;rounded=0;" edge="1" parent="1" source="review_process" target="review_db">
          <mxGeometry width="50" height="50" relative="1" as="geometry">
            <mxPoint x="600" y="510" as="sourcePoint" />
            <mxPoint x="300" y="530" as="targetPoint" />
          </mxGeometry>
        </mxCell>
        
        <!-- Data Flows from Data Stores to Processes -->
        <mxCell id="flow14" value="User Info" style="endArrow=classic;html=1;rounded=0;" edge="1" parent="1" source="user_db" target="auth_process">
          <mxGeometry width="50" height="50" relative="1" as="geometry">
            <mxPoint x="300" y="130" as="sourcePoint" />
            <mxPoint x="250" y="200" as="targetPoint" />
          </mxGeometry>
        </mxCell>
        
        <mxCell id="flow15" value="Property Info" style="endArrow=classic;html=1;rounded=0;" edge="1" parent="1" source="property_db" target="search_process">
          <mxGeometry width="50" height="50" relative="1" as="geometry">
            <mxPoint x="380" y="230" as="sourcePoint" />
            <mxPoint x="500" y="210" as="targetPoint" />
          </mxGeometry>
        </mxCell>
        
        <mxCell id="flow16" value="Property Details" style="endArrow=classic;html=1;rounded=0;" edge="1" parent="1" source="property_db" target="booking_process">
          <mxGeometry width="50" height="50" relative="1" as="geometry">
            <mxPoint x="380" y="250" as="sourcePoint" />
            <mxPoint x="500" y="310" as="targetPoint" />
          </mxGeometry>
        </mxCell>
        
        <mxCell id="flow17" value="Booking Info" style="endArrow=classic;html=1;rounded=0;" edge="1" parent="1" source="booking_db" target="payment_process">
          <mxGeometry width="50" height="50" relative="1" as="geometry">
            <mxPoint x="380" y="330" as="sourcePoint" />
            <mxPoint x="500" y="410" as="targetPoint" />
          </mxGeometry>
        </mxCell>
        
        <mxCell id="flow18" value="Booking Details" style="endArrow=classic;html=1;rounded=0;" edge="1" parent="1" source="booking_db" target="review_process">
          <mxGeometry width="50" height="50" relative="1" as="geometry">
            <mxPoint x="380" y="350" as="sourcePoint" />
            <mxPoint x="500" y="510" as="targetPoint" />
          </mxGeometry>
        </mxCell>
        
        <!-- Data Flows to External Services -->
        <mxCell id="flow19" value="Payment Request" style="endArrow=classic;html=1;rounded=0;" edge="1" parent="1" source="payment_process" target="payment_gateway">
          <mxGeometry width="50" height="50" relative="1" as="geometry">
            <mxPoint x="600" y="380" as="sourcePoint" />
            <mxPoint x="1000" y="330" as="targetPoint" />
          </mxGeometry>
        </mxCell>
        
        <mxCell id="flow20" value="Payment Confirmation" style="endArrow=classic;html=1;rounded=0;" edge="1" parent="1" source="payment_gateway" target="payment_process">
          <mxGeometry width="50" height="50" relative="1" as="geometry">
            <mxPoint x="1000" y="330" as="sourcePoint" />
            <mxPoint x="600" y="380" as="targetPoint" />
          </mxGeometry>
        </mxCell>
        
        <mxCell id="flow21" value="Notification Data" style="endArrow=classic;html=1;rounded=0;" edge="1" parent="1" source="notification_process" target="email_service">
          <mxGeometry width="50" height="50" relative="1" as="geometry">
            <mxPoint x="800" y="330" as="sourcePoint" />
            <mxPoint x="1000" y="500" as="targetPoint" />
          </mxGeometry>
        </mxCell>
        
        <!-- Data Flows from Processes to External Entities -->
        <mxCell id="flow22" value="Search Results" style="endArrow=classic;html=1;rounded=0;" edge="1" parent="1" source="search_process" target="guest">
          <mxGeometry width="50" height="50" relative="1" as="geometry">
            <mxPoint x="500" y="200" as="sourcePoint" />
            <mxPoint x="70" y="200" as="targetPoint" />
          </mxGeometry>
        </mxCell>
        
        <mxCell id="flow23" value="Booking Confirmation" style="endArrow=classic;html=1;rounded=0;" edge="1" parent="1" source="booking_process" target="guest">
          <mxGeometry width="50" height="50" relative="1" as="geometry">
            <mxPoint x="500" y="250" as="sourcePoint" />
            <mxPoint x="70" y="250" as="targetPoint" />
          </mxGeometry>
        </mxCell>
        
        <mxCell id="flow24" value="Payment Receipt" style="endArrow=classic;html=1;rounded=0;" edge="1" parent="1" source="payment_process" target="guest">
          <mxGeometry width="50" height="50" relative="1" as="geometry">
            <mxPoint x="500" y="350" as="sourcePoint" />
            <mxPoint x="70" y="280" as="targetPoint" />
          </mxGeometry>
        </mxCell>
        
        <mxCell id="flow25" value="Property Listing Confirmation" style="endArrow=classic;html=1;rounded=0;" edge="1" parent="1" source="property_process" target="host">
          <mxGeometry width="50" height="50" relative="1" as="geometry">
            <mxPoint x="250" y="380" as="sourcePoint" />
            <mxPoint x="70" y="400" as="targetPoint" />
          </mxGeometry>
        </mxCell>
        
        <mxCell id="flow26" value="Booking Notification" style="endArrow=classic;html=1;rounded=0;" edge="1" parent="1" source="notification_process" target="host">
          <mxGeometry width="50" height="50" relative="1" as="geometry">
            <mxPoint x="700" y="350" as="sourcePoint" />
            <mxPoint x="70" y="400" as="targetPoint" />
          </mxGeometry>
        </mxCell>
        
        <mxCell id="flow27" value="System Reports" style="endArrow=classic;html=1;rounded=0;" edge="1" parent="1" source="admin_process" target="admin">
          <mxGeometry width="50" height="50" relative="1" as="geometry">
            <mxPoint x="150" y="620" as="sourcePoint" />
            <mxPoint x="70" y="600" as="targetPoint" />
          </mxGeometry>
        </mxCell>
        
        <!-- Data Flows from Admin Process to Data Stores -->
        <mxCell id="flow28" value="User Management" style="endArrow=classic;html=1;rounded=0;" edge="1" parent="1" source="admin_process" target="user_db">
          <mxGeometry width="50" height="50" relative="1" as="geometry">
            <mxPoint x="200" y="580" as="sourcePoint" />
            <mxPoint x="300" y="160" as="targetPoint" />
          </mxGeometry>
        </mxCell>
        
        <mxCell id="flow29" value="Property Management" style="endArrow=classic;html=1;rounded=0;" edge="1" parent="1" source="admin_process" target="property_db">
          <mxGeometry width="50" height="50" relative="1" as="geometry">
            <mxPoint x="200" y="600" as="sourcePoint" />
            <mxPoint x="300" y="260" as="targetPoint" />
          </mxGeometry>
        </mxCell>
        
        <mxCell id="flow30" value="Booking Management" style="endArrow=classic;html=1;rounded=0;" edge="1" parent="1" source="admin_process" target="booking_db">
          <mxGeometry width="50" height="50" relative="1" as="geometry">
            <mxPoint x="200" y="620" as="sourcePoint" />
            <mxPoint x="300" y="360" as="targetPoint" />
          </mxGeometry>
        </mxCell>
        
        <!-- Data Flows from Data Stores to Admin Process -->
        <mxCell id="flow31" value="System Data" style="endArrow=classic;html=1;rounded=0;" edge="1" parent="1" source="user_db" target="admin_process">
          <mxGeometry width="50" height="50" relative="1" as="geometry">
            <mxPoint x="300" y="160" as="sourcePoint" />
            <mxPoint x="200" y="580" as="targetPoint" />
          </mxGeometry>
        </mxCell>
        
        <mxCell id="flow32" value="Property Analytics" style="endArrow=classic;html=1;rounded=0;" edge="1" parent="1" source="property_db" target="admin_process">
          <mxGeometry width="50" height="50" relative="1" as="geometry">
            <mxPoint x="300" y="260" as="sourcePoint" />
            <mxPoint x="200" y="600" as="targetPoint" />
          </mxGeometry>
        </mxCell>
        
        <mxCell id="flow33" value="Booking Analytics" style="endArrow=classic;html=1;rounded=0;" edge="1" parent="1" source="booking_db" target="admin_process">
          <mxGeometry width="50" height="50" relative="1" as="geometry">
            <mxPoint x="300" y="360" as="sourcePoint" />
            <mxPoint x="200" y="620" as="targetPoint" />
          </mxGeometry>
        </mxCell>
        
        <!-- Data Flows between Processes -->
        <mxCell id="flow34" value="Search Results" style="endArrow=classic;html=1;rounded=0;" edge="1" parent="1" source="search_process" target="booking_process">
          <mxGeometry width="50" height="50" relative="1" as="geometry">
            <mxPoint x="550" y="240" as="sourcePoint" />
            <mxPoint x="500" y="280" as="targetPoint" />
          </mxGeometry>
        </mxCell>
        
        <mxCell id="flow35" value="Booking Details" style="endArrow=classic;html=1;rounded=0;" edge="1" parent="1" source="booking_process" target="notification_process">
          <mxGeometry width="50" height="50" relative="1" as="geometry">
            <mxPoint x="600" y="320" as="sourcePoint" />
            <mxPoint x="700" y="320" as="targetPoint" />
          </mxGeometry>
        </mxCell>
        
        <mxCell id="flow36" value="Payment Details" style="endArrow=classic;html=1;rounded=0;" edge="1" parent="1" source="payment_process" target="notification_process">
          <mxGeometry width="50" height="50" relative="1" as="geometry">
            <mxPoint x="600" y="400" as="sourcePoint" />
            <mxPoint x="700" y="340" as="targetPoint" />
          </mxGeometry>
        </mxCell>
        
        <!-- Title -->
        <mxCell id="title" value="Airbnb Clone - Data Flow Diagram" style="text;html=1;strokeColor=none;fillColor=none;align=center;verticalAlign=middle;whiteSpace=wrap;rounded=0;fontSize=16;fontStyle=1;" vertex="1" parent="1">
          <mxGeometry x="400" y="20" width="300" height="30" as="geometry" />
        </mxCell>
        
      </root>
    </mxGraphModel>
  </diagram>
</mxfile>
